<?xml version="1.0" standalone="no"?>
<!DOCTYPE svg PUBLIC "-//W3C//DTD SVG 20010904//EN"
 "http://www.w3.org/TR/2001/REC-SVG-20010904/DTD/svg10.dtd">
<svg version="1.0" xmlns="http://www.w3.org/2000/svg"
 width="200.000000pt" height="200.000000pt" viewBox="0 0 200.000000 200.000000"
 preserveAspectRatio="xMidYMid meet">
<metadata>
Created by potrace 1.11, written by Peter Selinger 2001-2013
</metadata>
<g transform="translate(0.000000,200.000000) scale(0.100000,-0.100000)"
fill="#000000" stroke="none">
<path d="M848 1629 c-62 -9 -123 -36 -150 -66 -41 -45 -51 -93 -56 -258 -5
-167 -13 -204 -51 -225 -11 -5 -29 -10 -40 -10 -19 0 -21 -6 -21 -65 0 -61 1
-65 23 -65 31 0 62 -24 75 -57 6 -15 12 -100 14 -188 3 -147 6 -165 28 -210
37 -75 90 -104 218 -119 l52 -7 0 71 c0 69 -1 70 -26 70 -73 0 -94 46 -94 213
0 156 -15 213 -69 259 l-39 33 39 33 c53 45 69 103 69 252 0 65 5 131 11 148
12 36 48 62 84 62 24 0 25 2 25 70 0 79 7 74 -92 59z"/>
<path d="M1060 1570 c0 -68 1 -70 25 -70 30 0 70 -24 81 -48 4 -9 10 -84 13
-167 6 -129 10 -157 30 -197 12 -27 36 -56 51 -65 l29 -17 -39 -34 c-55 -46
-70 -103 -70 -259 0 -167 -21 -213 -94 -213 -25 0 -26 -1 -26 -70 l0 -71 53 7
c109 13 171 40 203 90 28 42 44 139 44 277 0 94 4 136 15 157 17 33 43 50 74
50 19 0 21 6 21 65 0 59 -2 65 -21 65 -68 0 -89 47 -89 198 0 263 -44 337
-217 362 -37 5 -71 10 -75 10 -5 0 -8 -31 -8 -70z"/>
</g>
</svg>
